<svg xmlns="http://www.w3.org/2000/svg" xmlns:xlink="http://www.w3.org/1999/xlink" version="1.1" x="0px" y="0px" viewBox="0 0 100 125" enable-background="new 0 0 100 100" xml:space="preserve"><g><g><path fill="none" d="M73.938,35.71c3.863-0.05,7.71-0.27,11.551-0.652C80.453,25.01,75.105,14.942,66.663,7.341    c-8.039,10.378-17.061,19.922-27.009,28.484c5.301,0.226,10.602,0.43,15.876,1.026c0.09,0.01,0.167,0.039,0.238,0.072    c0.252-0.005,0.501,0.155,0.496,0.487c-0.118,8.653-6.085,15.373-13.068,19.812c-8.192,5.207-17.882,7.629-27.285,9.821    c3.673,1.096,7.723,0.945,11.508,1.113c4.826,0.213,9.652,0.424,14.478,0.636c0.657,0.029,1.297,0.825,0.832,1.45    c-5.482,7.381-10.692,14.956-15.639,22.705c1.592-0.137,3.308-1.228,4.62-1.812c1.493-0.666,2.984-1.337,4.469-2.021    c3.117-1.437,6.208-2.932,9.235-4.552c5.921-3.169,11.633-6.835,16.561-11.426c9.575-8.92,16.194-22.221,13.251-35.467    c-0.43,0.009-0.859,0.026-1.289,0.03C72.655,37.711,72.659,35.726,73.938,35.71z"/><path d="M87.86,35.396C82.371,24.477,76.633,13.37,67.228,5.27c-0.511-0.44-1.114-0.319-1.506,0.194    c-8.597,11.237-18.413,21.442-29.247,30.537c-0.688,0.578-0.088,1.631,0.689,1.664c6.007,0.262,12.009,0.636,18.022,0.513    c-0.91,8.561-7.795,15.016-15.059,18.916c-8.518,4.573-18.11,6.708-27.459,8.845c-0.744,0.17-0.901,1.3-0.216,1.656    c3.979,2.066,8.36,2.111,12.741,2.321c4.957,0.237,9.915,0.477,14.872,0.716c-5.451,7.341-10.637,14.866-15.537,22.588    c-0.382,0.602,0.031,1.241,0.6,1.474c2.756,1.128,6.048-1.133,8.49-2.228c3.581-1.606,7.145-3.253,10.637-5.044    c6.848-3.512,13.478-7.612,19.127-12.88c9.99-9.318,16.7-23.141,13.845-36.92c3.269-0.12,6.527-0.37,9.782-0.741    C87.763,36.794,88.22,36.113,87.86,35.396z M61.975,73.136c-4.928,4.59-10.639,8.257-16.561,11.426    c-3.026,1.62-6.118,3.115-9.235,4.552c-1.485,0.685-2.975,1.356-4.469,2.021c-1.312,0.585-3.028,1.675-4.62,1.812    c4.947-7.749,10.157-15.324,15.639-22.705c0.464-0.625-0.175-1.421-0.832-1.45c-4.826-0.212-9.652-0.423-14.478-0.636    c-3.785-0.167-7.835-0.016-11.508-1.113c9.403-2.192,19.093-4.615,27.285-9.821c6.983-4.439,12.951-11.159,13.068-19.812    c0.004-0.332-0.244-0.492-0.496-0.487c-0.071-0.034-0.148-0.062-0.238-0.072c-5.274-0.597-10.575-0.8-15.876-1.026    c9.948-8.563,18.97-18.106,27.009-28.484c8.442,7.601,13.79,17.669,18.825,27.717c-3.841,0.382-7.688,0.602-11.551,0.652    c-1.278,0.016-1.282,2.001,0,1.988c0.43-0.004,0.859-0.021,1.289-0.03C78.169,50.915,71.55,64.216,61.975,73.136z"/></g></g></svg>